#!OML:ASF I:\Actors\actors\Patient Classification 1\Patient 1\Session 1\Subject1.ASF
:FULLY-SPECIFIED
:DEGREES
1268
root 0.794188 17.4883 9.45808 10.2049 -3.85671 -8.94759
lowerback -2.42027 2.39304 6.23393
upperback -8.35018 3.47518 2.51647
thorax -7.20195 1.41053 -0.958866
lowerneck -12.0328 -8.30911 -6.60682
upperneck 28.3408 -12.3376 6.1465
head 12.1231 -5.54809 1.62736
rclavicle -2.99916e-014 1.42628e-014
rhumerus -13.6509 15.1703 -80.101
rradius 73.4403
rwrist 36.539
rhand -6.69801 -50.5782
rfingers 7.12502
rthumb 19.1612 280.346
lclavicle -2.99916e-014 1.42628e-014
lhumerus -41.9719 -16.0798 103.104
lradius 101.924
lwrist 12.6805
lhand -38.6621 -21.6982
lfingers 7.12502
lthumb -11.6778 7.95633
rfemur -4.55258 24.4392 24.577
rtibia 3.05064
rfoot -12.1134 -24.273
rtoes 1.67326
lfemur 8.11922 -48.6823 -15.6612
ltibia -4.8255
lfoot -34.9438 57.5719
ltoes 21.8375
1269
root 0.793255 17.4895 9.45686 10.2228 -3.81303 -8.99869
lowerback -2.39125 2.37942 6.34512
upperback -8.33974 3.46416 2.57003
thorax -7.20704 1.39973 -0.964743
lowerneck -12.0957 -8.28973 -6.57939
upperneck 28.3888 -12.3207 6.15717
head 12.1526 -5.53313 1.62675
rclavicle 4.75095e-014 -9.93923e-016
rhumerus -13.5302 14.6815 -80.0495
rradius 73.8787
rwrist 36.2405
rhand 0.0249762 -52.3002
rfingers 7.12502
rthumb 25.6143 279.402
lclavicle 4.75095e-014 -9.93923e-016
lhumerus -41.9175 -16.0894 103.095
lradius 101.873
lwrist 12.6689
lhand -38.5771 -21.9428
lfingers 7.12502
lthumb -11.5958 7.71639
rfemur -4.53816 24.5673 24.6525
rtibia 3.0245
rfoot -12.1526 -24.4365
rtoes 1.64305
lfemur 8.00724 -48.5885 -15.4894
ltibia -4.82478
lfoot -34.6553 57.4966
ltoes 21.6681
1270
root 0.790607 17.4908 9.456 10.2291 -3.75986 -9.05487
lowerback -2.38029 2.36766 6.45166
upperback -8.32941 3.45345 2.61542
thorax -7.20148 1.38942 -0.975807
lowerneck -12.1766 -8.26746 -6.55367
upperneck 28.4819 -12.2936 6.13894
head 12.2009 -5.5158 1.61644
rclavicle -3.56632e-014 -4.27387e-014
rhumerus -13.5457 13.922 -80.1526
rradius 74.4172
rwrist 35.62
rhand 6.31328 -54.668
rfingers 7.12502
rthumb 31.6218 278.051
lclavicle -3.56632e-014 -4.27387e-014
lhumerus -41.9337 -16.1028 103.092
lradius 101.884
lwrist 12.6846
lhand -38.5429 -22.1117
lfingers 7.12502
lthumb -11.5629 7.54935
rfemur -4.50548 24.7357 24.7444
rtibia 2.98273
rfoot -12.1899 -24.6314
rtoes 1.78598
lfemur 7.88659 -48.4055 -15.2754
ltibia -4.85282
lfoot -34.2431 57.3559
ltoes 21.3748
1271
root 0.789018 17.4914 9.45619 10.2406 -3.71066 -9.04347
lowerback -2.40757 2.33892 6.50504
upperback -8.31051 3.41264 2.62577
thorax -7.16606 1.36736 -0.991679
lowerneck -12.2808 -8.22736 -6.56184
upperneck 28.583 -12.275 6.25649
head 12.2712 -5.48839 1.65965
rclavicle -3.19919e-015 -2.87989e-014
rhumerus -13.7177 12.884 -80.4496
rradius 74.9806
rwrist 35.1344
rhand 11.5642 -58.3837
rfingers 7.12502
rthumb 36.6084 275.452
lclavicle -3.19919e-015 -2.87989e-014
lhumerus -41.9387 -16.045 103.054
lradius 101.904
lwrist 12.656
lhand -38.5634 -22.0684
lfingers 7.12502
lthumb -11.5827 7.59155
rfemur -4.50146 24.7943 24.7385
rtibia 2.95364
rfoot -12.2024 -24.7257
rtoes 1.96973
lfemur 7.7178 -48.0767 -15.1009
ltibia -4.8908
lfoot -33.5993 57.1299
ltoes 21.0246
1272
root 0.788706 17.4915 9.45721 10.2571 -3.67785 -9.01014
lowerback -2.43775 2.30201 6.54188
upperback -8.2963 3.36022 2.63159
thorax -7.13524 1.34021 -1.00285
lowerneck -12.4366 -8.16739 -6.55822
upperneck 28.7471 -12.2387 6.38735
head 12.3766 -5.44723 1.70679
rclavicle -2.0481e-014 1.80397e-014
rhumerus -13.6332 12.5098 -80.5813
rradius 75.0828
rwrist 34.3077
rhand 11.8579 -58.7573
rfingers 7.12502
rthumb 36.8863 275.149
lclavicle -2.0481e-014 1.80397e-014
lhumerus -41.94 -15.8937 103.027
lradius 101.912
lwrist 12.579
lhand -38.559 -21.9608
lfingers 7.12502
lthumb -11.5784 7.69934
rfemur -4.50667 24.8093 24.6985
rtibia 2.92501
rfoot -12.1879 -24.775
rtoes 2.03238
lfemur 7.63883 -48.0017 -15.0777
ltibia -4.87098
lfoot -33.3854 57.0625
ltoes 20.89
1273
root 0.787895 17.4912 9.45779 10.2673 -3.67079 -9.01867
lowerback -2.43019 2.29541 6.61618
upperback -8.29512 3.3531 2.62853
thorax -7.13572 1.33161 -1.04702
lowerneck -12.5819 -8.09887 -6.50958
upperneck 28.9543 -12.199 6.49477
head 12.4923 -5.40178 1.73947
rclavicle 2.12327e-014 2.52208e-014
rhumerus -13.4096 12.7921 -80.5014
rradius 74.8804
rwrist 33.1761
rhand 12.0758 -59.2299
rfingers 7.12502
rthumb 37.0924 274.73
lclavicle 2.12327e-014 2.52208e-014
lhumerus -41.9505 -15.8203 103.033
lradius 101.877
lwrist 12.5463
lhand -38.5853 -21.8958
lfingers 7.12502
lthumb -11.6037 7.76294
rfemur -4.51071 24.8103 24.7086
rtibia 2.91288
rfoot -12.2057 -24.7698
rtoes 2.10826
lfemur 7.71402 -48.269 -15.1637
ltibia -4.81768
lfoot -33.932 57.1786
ltoes 21.2116
1274
root 0.785828 17.4917 9.45832 10.2516 -3.7028 -9.03295
lowerback -2.38971 2.29387 6.6512
upperback -8.2908 3.35518 2.62829
thorax -7.15291 1.32976 -1.06824
lowerneck -12.6696 -8.02648 -6.43273
upperneck 29.1004 -12.1509 6.58067
head 12.5671 -5.35538 1.76375
rclavicle -4.13099e-015 2.41523e-014
rhumerus -13.5567 13.0501 -80.5499
rradius 75.0272
rwrist 32.5804
rhand 12.9168 -59.6612
rfingers 7.12502
rthumb 37.8873 274.509
lclavicle -4.13099e-015 2.41523e-014
lhumerus -41.9298 -15.7809 103.018
lradius 101.827
lwrist 12.5864
lhand -38.6129 -21.842
lfingers 7.12502
lthumb -11.6303 7.81526
rfemur -4.50482 24.736 24.732
rtibia 2.93013
rfoot -12.2225 -24.6553
rtoes 2.20389
lfemur 7.86212 -48.4873 -15.2799
ltibia -4.80905
lfoot -34.4559 57.2895
ltoes 21.5454
1275
root 0.782008 17.4918 9.46013 10.2378 -3.75934 -9.00733
lowerback -2.367 2.29504 6.59913
upperback -8.2967 3.35779 2.62045
thorax -7.1738 1.33339 -1.0489
lowerneck -12.6955 -7.97383 -6.37854
upperneck 29.1583 -12.118 6.6596
head 12.5957 -5.32304 1.78924
rclavicle -3.0501e-014 -1.81639e-014
rhumerus -14.0365 13.2174 -80.7327
rradius 75.4903
rwrist 32.5758
rhand 12.6517 -59.034
rfingers 7.12502
rthumb 37.6368 275.069
lclavicle -3.0501e-014 -1.81639e-014
lhumerus -41.9175 -15.7236 102.996
lradius 101.81
lwrist 12.62
lhand -38.5815 -21.7307
lfingers 7.12502
lthumb -11.6001 7.92828
rfemur -4.49288 24.718 24.7156
rtibia 2.93687
rfoot -12.225 -24.5939
rtoes 2.20098
lfemur 8.02028 -48.6437 -15.4291
ltibia -4.84987
lfoot -34.6887 57.4616
ltoes 21.6242
1276
root 0.777804 17.4908 9.46237 10.2395 -3.79886 -9.00327
lowerback -2.35311 2.31314 6.56382
upperback -8.31518 3.38326 2.60895
thorax -7.20107 1.34681 -1.04312
lowerneck -12.7134 -7.95139 -6.35937
upperneck 29.1964 -12.1237 6.7534
head 12.6215 -5.31033 1.82
rclavicle 3.10601e-015 2.72335e-014
rhumerus -14.6381 13.1835 -80.8863
rradius 76.1303
rwrist 33.3255
rhand 8.77079 -54.835
rfingers 7.12502
rthumb 33.9596 278.372
lclavicle 3.10601e-015 2.72335e-014
lhumerus -41.9246 -15.7155 103.011
lradius 101.809
lwrist 12.6446
lhand -38.5864 -21.687
lfingers 7.12502
lthumb -11.6048 7.97166
rfemur -4.47626 24.7703 24.7308
rtibia 2.92792
rfoot -12.2192 -24.61
rtoes 2.17268
lfemur 8.17565 -48.859 -15.5502
ltibia -4.90019
lfoot -35.0367 57.6746
ltoes 21.8217
